<?xml version="1.0" standalone="no"?>
<!DOCTYPE svg PUBLIC "-//W3C//DTD SVG 20010904//EN"
 "http://www.w3.org/TR/2001/REC-SVG-20010904/DTD/svg10.dtd">
<svg version="1.0" xmlns="http://www.w3.org/2000/svg"
 width="512.000000pt" height="512.000000pt" viewBox="0 0 512.000000 512.000000"
 preserveAspectRatio="xMidYMid meet">
<metadata>
Created by potrace 1.14, written by Peter Selinger 2001-2017
</metadata>
<g transform="translate(0.000000,512.000000) scale(0.100000,-0.100000)"
fill="#000000" stroke="none">
<path d="M2660 4720 c-30 -11 -65 -20 -77 -20 -11 0 -43 -17 -70 -39 -54 -43
-79 -50 -168 -52 -33 -1 -67 -5 -76 -10 -9 -5 -31 -11 -50 -14 -50 -8 -92 -27
-107 -47 -7 -10 -19 -18 -26 -18 -7 0 -23 -11 -35 -24 -13 -14 -29 -22 -36
-20 -43 17 -236 -141 -252 -205 -12 -51 -44 -101 -73 -116 -17 -9 -70 -56
-119 -104 -95 -96 -108 -123 -103 -221 2 -29 -3 -49 -12 -55 -17 -13 -76 -120
-76 -139 0 -8 -4 -16 -10 -18 -15 -5 -27 -88 -19 -128 8 -36 0 -58 -46 -135
-13 -22 -24 -47 -24 -57 -1 -9 -6 -18 -13 -20 -13 -5 -36 -110 -37 -171 -1
-20 10 -60 24 -89 14 -28 25 -62 25 -76 0 -13 5 -32 11 -43 7 -15 6 -27 -4
-47 -11 -24 -11 -34 0 -66 14 -43 9 -62 -11 -43 -8 6 -12 15 -10 19 2 4 0 9
-6 13 -15 9 -6 -51 11 -67 8 -8 22 -17 33 -21 15 -6 18 -15 13 -46 -5 -38 6
-71 23 -71 6 0 10 11 10 25 0 27 31 48 38 27 2 -7 8 -12 13 -12 17 0 4 54 -18
78 -13 14 -23 34 -23 46 0 12 -3 31 -6 43 -5 17 -1 22 18 25 29 4 30 22 1 26
-26 4 -30 17 -10 29 7 4 21 25 31 47 16 35 17 40 3 54 -13 13 -19 13 -31 2
-13 -10 -16 -10 -16 3 0 19 25 29 53 22 17 -5 26 1 41 26 17 29 17 33 3 41 -9
5 -24 24 -32 42 -9 19 -25 36 -37 39 -11 3 -17 10 -13 17 5 8 11 8 22 -1 19
-17 33 4 28 43 -3 20 4 36 21 53 13 13 24 34 24 45 0 12 5 18 10 15 6 -3 13 1
16 9 3 9 12 16 20 16 8 0 14 6 15 13 3 41 0 95 -6 111 -7 15 -5 17 13 12 21
-7 21 -5 17 54 -4 45 -2 61 7 58 15 -5 48 22 48 40 0 13 39 92 51 102 3 3 8
12 11 21 4 9 21 23 40 32 18 9 39 25 46 36 7 12 18 21 26 21 8 0 17 7 20 16 4
10 12 14 22 10 9 -4 23 -1 32 6 12 10 16 10 19 1 3 -7 9 -13 14 -13 4 0 6 6 3
13 -7 19 22 40 45 34 13 -3 18 0 15 8 -3 7 2 15 10 18 9 4 16 3 16 -1 0 -4 17
-9 37 -10 30 -2 35 0 25 10 -6 6 -12 19 -12 28 1 12 3 12 14 -3 15 -20 50 -12
42 9 -6 16 31 19 54 4 9 -6 20 -5 30 4 8 6 28 17 43 24 23 10 29 9 33 -3 8
-20 44 -19 44 0 0 20 22 19 51 -4 18 -14 30 -16 48 -9 19 6 22 11 13 20 -7 7
-12 16 -12 20 0 11 38 10 61 -2 15 -9 19 -7 19 5 0 9 4 14 9 11 5 -4 20 -2 33
4 18 7 10 9 -33 6 -36 -2 -63 2 -74 11 -28 20 -48 17 -40 -7 8 -24 -20 -27
-49 -5 -11 8 -29 12 -42 9 -13 -3 -33 1 -48 11 -14 9 -30 14 -37 10 -6 -4 -15
-1 -20 6 -6 10 -13 11 -26 4 -10 -6 -30 -10 -44 -10 -17 1 -25 -4 -22 -11 5
-14 -99 -39 -123 -30 -49 19 47 72 146 80 14 1 44 8 68 15 23 6 46 10 50 7 5
-3 27 0 51 5 31 7 53 6 77 -3 30 -11 36 -10 49 8 14 18 16 18 28 2 8 -9 32
-21 55 -26 38 -9 40 -8 29 9 -6 10 -16 18 -22 18 -19 -2 -55 13 -55 23 0 6
-12 8 -30 5 -16 -4 -32 -2 -35 3 -4 6 -10 8 -15 5 -4 -2 -19 4 -32 15 -14 11
-28 17 -31 13 -3 -3 -13 2 -22 11 -21 21 -30 20 -52 -3 -10 -10 -29 -22 -42
-26 -21 -6 -23 -5 -18 14 7 26 -3 26 -56 0 -23 -11 -59 -22 -81 -24 -21 -2
-46 -10 -55 -18 -9 -8 -27 -18 -40 -22 -14 -4 -38 -16 -55 -26 -33 -20 -82
-26 -71 -9 3 6 14 10 25 10 10 0 21 7 24 16 3 9 13 14 21 10 8 -3 18 1 22 8 5
7 29 23 56 35 26 13 47 26 47 31 0 4 12 8 27 8 14 0 31 6 38 15 6 8 26 19 45
25 19 5 43 13 53 17 12 5 17 2 17 -8 0 -16 42 -18 57 -4 13 14 43 7 53 -12 9
-18 12 -19 38 -5 35 18 51 18 58 -1 4 -8 10 -13 14 -10 5 3 11 1 15 -5 3 -5
17 -10 30 -10 12 0 26 -7 29 -16 3 -8 10 -13 15 -9 5 3 21 -5 35 -17 71 -63
76 -67 76 -48 0 17 -58 76 -95 96 -18 10 -36 25 -38 35 -3 9 -19 20 -36 24
-17 4 -31 10 -31 14 0 10 -84 52 -115 56 -5 1 -17 4 -25 8 -33 12 -70 17 -70
8 0 -4 -11 -8 -25 -8 -14 0 -25 3 -25 8 0 5 4 9 9 9 5 0 12 10 16 23 3 12 8
17 11 12 3 -7 27 -8 67 -4 34 3 83 3 109 -2 25 -4 60 -4 77 1 22 6 29 6 25 -2
-5 -7 -1 -9 9 -5 20 8 23 -13 5 -31 -9 -9 -9 -15 -2 -20 30 -21 50 -39 60 -57
7 -12 20 -19 33 -17 11 2 21 -2 21 -8 0 -15 50 -80 62 -80 13 0 38 -26 38 -40
0 -6 12 -10 28 -8 32 4 41 34 21 70 -7 13 -14 38 -14 56 -1 19 -10 38 -21 47
-19 14 -19 14 0 15 18 0 17 3 -8 29 -17 18 -25 34 -21 42 5 6 9 39 10 73 1 34
3 73 4 87 0 15 8 29 16 33 21 8 56 -29 48 -50 -3 -9 0 -20 8 -24 11 -7 9 -14
-10 -34 -24 -25 -24 -26 -6 -46 10 -11 23 -17 29 -13 6 4 5 0 -2 -9 -10 -13
-10 -17 3 -22 12 -4 13 -10 6 -25 -9 -16 -6 -20 24 -25 19 -4 35 -12 35 -18 0
-5 -7 -8 -15 -5 -24 10 -29 -13 -6 -29 23 -16 20 -37 -4 -28 -10 4 -14 -4 -13
-35 0 -36 3 -41 19 -36 15 5 19 1 19 -18 0 -14 -7 -27 -15 -31 -19 -7 -8 -36
14 -36 24 0 65 46 58 64 -4 9 0 22 8 30 8 8 15 23 15 34 0 23 28 38 43 23 12
-12 60 17 51 31 -3 5 -17 7 -30 4 -23 -6 -23 -5 -12 14 7 11 18 20 25 20 16 0
53 49 53 70 0 20 80 74 92 62 5 -5 2 -21 -6 -37 -8 -16 -13 -32 -10 -37 3 -5
-6 -18 -20 -29 -15 -11 -24 -25 -20 -30 3 -5 -4 -21 -15 -35 -12 -15 -21 -32
-21 -39 0 -16 44 -11 75 9 13 9 31 16 40 16 9 0 18 7 21 15 4 8 12 15 20 15 8
0 14 5 14 10 0 6 9 10 19 10 10 0 22 8 25 17 5 12 9 14 18 5 14 -14 42 -16 34
-3 -3 5 1 12 10 15 13 5 14 9 3 22 -10 13 -9 16 9 21 25 6 27 14 11 30 -6 6
-10 16 -8 22 3 7 19 -7 37 -31 27 -35 30 -43 17 -51 -9 -4 -13 -12 -10 -16 2
-5 -2 -14 -10 -21 -22 -18 -18 -30 10 -30 15 0 25 -6 25 -14 0 -11 -8 -12 -41
-3 -32 8 -43 7 -49 -3 -4 -7 -12 -10 -16 -7 -11 6 -35 -12 -50 -37 -5 -11 -19
-21 -30 -22 -10 -1 -28 -5 -39 -8 -11 -3 -48 -11 -82 -18 -39 -9 -69 -21 -81
-36 -11 -12 -26 -22 -33 -22 -14 0 -36 -20 -54 -49 -5 -10 -4 -12 3 -7 14 8
51 18 72 18 8 0 32 6 53 14 27 10 43 11 57 4 16 -8 18 -8 14 5 -5 11 1 15 25
15 17 0 31 -4 31 -10 0 -15 26 -12 40 5 17 21 27 19 34 -7 5 -20 8 -21 19 -8
16 20 68 23 60 4 -3 -8 0 -14 6 -14 6 0 11 3 11 8 0 4 4 13 9 21 8 12 12 12
25 -2 9 -8 16 -20 16 -25 0 -16 36 -42 58 -42 12 0 29 -8 39 -18 10 -10 37
-26 60 -36 23 -10 44 -25 47 -32 3 -8 14 -14 24 -14 10 0 22 -3 26 -7 4 -5 13
-8 19 -8 7 0 11 -10 9 -23 -2 -16 4 -25 20 -31 13 -5 30 -16 37 -25 8 -9 29
-24 48 -33 19 -9 38 -26 43 -38 4 -11 24 -32 44 -46 37 -25 49 -46 20 -35 -14
5 -15 4 -4 -9 7 -9 18 -14 24 -12 11 4 86 -71 86 -85 0 -5 7 -8 15 -8 8 0 22
-18 31 -40 14 -34 21 -40 46 -40 17 0 27 -4 23 -10 -3 -5 0 -10 8 -10 12 0 63
-77 56 -84 -2 -2 -14 -7 -26 -10 -16 -5 -23 -3 -23 7 0 18 -28 42 -65 55 -16
6 -24 11 -17 11 18 1 15 18 -5 25 -9 4 -20 1 -25 -6 -12 -19 -25 4 -33 58 -5
38 -9 42 -32 41 -19 -2 -29 6 -42 28 -9 17 -26 43 -38 58 l-21 28 -8 -23 c-7
-22 -8 -22 -15 7 -8 30 -63 95 -80 95 -5 0 -9 9 -9 20 0 11 -6 20 -14 20 -7 0
-16 10 -20 23 -5 17 -8 19 -15 9 -6 -10 -10 -7 -15 13 -5 19 -11 25 -24 20
-13 -3 -28 6 -49 30 -18 20 -37 33 -45 30 -9 -4 -20 5 -28 20 -12 22 -15 23
-29 11 -17 -14 -41 -11 -41 5 0 6 5 7 10 4 6 -3 10 -2 10 2 0 5 -10 14 -22 22
-19 12 -23 11 -34 -3 -7 -10 -15 -13 -18 -7 -3 5 0 11 6 14 10 3 10 8 2 17 -9
9 -16 7 -32 -10 -17 -18 -20 -19 -26 -5 -8 22 -29 7 -23 -16 6 -24 -11 -25
-20 -1 -7 17 -22 32 -35 32 -4 0 -5 -7 -2 -15 6 -15 -16 -21 -30 -8 -3 4 -16
8 -27 10 -16 2 -19 -1 -14 -17 7 -23 -10 -28 -19 -5 -7 20 -55 38 -75 29 -9
-4 -20 -6 -26 -5 -28 8 -65 6 -65 -2 0 -5 -16 -7 -35 -4 -19 3 -37 2 -40 -3
-10 -16 15 -51 33 -48 9 1 31 -2 47 -7 17 -4 38 -7 48 -6 9 1 32 -6 50 -17 17
-11 38 -17 45 -15 6 3 12 0 12 -6 0 -6 7 -11 15 -11 9 0 12 6 8 16 -5 14 -2
16 23 10 16 -4 31 -12 32 -17 6 -14 32 -10 38 6 4 8 10 15 15 15 5 0 9 -7 9
-15 0 -8 7 -15 16 -15 10 0 14 -6 10 -15 -3 -8 -2 -15 3 -15 5 0 11 -10 14
-22 5 -17 9 -19 21 -9 10 8 16 9 21 1 4 -6 12 -7 18 -2 14 10 42 10 42 0 0 -3
13 -17 30 -30 16 -12 38 -31 47 -40 10 -10 23 -18 29 -18 7 0 9 -10 7 -24 -4
-17 -1 -23 9 -19 7 3 13 -2 13 -11 0 -9 8 -16 18 -16 9 0 30 -12 46 -26 27
-24 28 -26 11 -44 -17 -18 -17 -20 -2 -21 33 -3 37 -4 37 -14 0 -5 -4 -11 -10
-11 -5 -1 -14 -2 -20 -3 -15 -2 -12 -31 4 -37 8 -3 11 -15 8 -31 -4 -22 -2
-24 17 -18 12 4 21 2 21 -4 0 -6 -7 -11 -15 -11 -8 0 -15 -9 -15 -20 0 -11 7
-20 15 -20 11 0 14 -7 9 -25 -4 -17 -2 -25 7 -27 8 0 19 -2 24 -3 6 -2 16 -3
24 -4 13 -1 13 -4 -5 -69 -5 -17 -3 -21 8 -17 9 4 19 -4 26 -20 6 -14 20 -25
30 -25 15 0 18 -9 17 -54 0 -35 4 -51 10 -46 6 4 20 11 33 14 17 6 22 3 22 -9
0 -9 -8 -19 -18 -22 -13 -3 -19 -14 -19 -34 0 -31 6 -36 25 -17 7 7 12 10 13
7 7 -50 5 -67 -11 -95 -26 -41 -26 -57 0 -49 14 4 20 2 20 -9 0 -8 3 -21 6
-30 3 -8 -3 -22 -15 -33 -12 -9 -21 -21 -21 -26 0 -5 7 -4 15 3 12 10 15 9 15
-5 0 -9 9 -19 19 -22 23 -6 36 -32 22 -46 -6 -6 -14 -1 -21 13 -10 18 -14 20
-21 9 -13 -21 -11 -82 4 -104 8 -11 17 -33 20 -50 3 -16 11 -43 18 -60 7 -16
13 -39 13 -50 1 -13 7 -19 19 -19 22 2 22 -5 0 -22 -22 -16 -14 -25 15 -17 15
3 22 13 22 29 0 13 5 24 10 24 12 0 12 -13 1 -62 -7 -29 -6 -38 4 -38 11 0 18
19 31 75 1 6 3 15 4 20 1 6 3 15 4 20 5 26 28 68 50 92 l24 25 6 -28 c3 -16 8
-51 12 -79 3 -27 12 -71 19 -97 11 -36 11 -48 2 -48 -17 1 -47 25 -47 39 0 6
-9 12 -20 13 -11 0 -25 1 -31 2 -22 2 -50 -66 -43 -106 3 -20 3 -47 -1 -58 -7
-21 -7 -21 -40 4 -19 15 -38 26 -43 26 -5 0 -8 -24 -8 -52 1 -29 -2 -59 -7
-65 -5 -7 -9 -39 -8 -70 3 -98 2 -107 -5 -143 -4 -19 -13 -39 -20 -43 -19 -11
-18 -28 1 -21 8 4 15 1 15 -5 0 -16 27 -13 33 3 3 8 7 51 8 95 1 45 6 81 12
81 5 0 5 6 -2 13 -15 19 -3 29 20 16 23 -12 25 -37 4 -45 -8 -4 -15 -10 -15
-15 0 -4 7 -6 17 -2 14 6 15 -1 11 -60 -4 -42 -12 -75 -25 -92 -17 -23 -18
-33 -9 -76 7 -36 7 -55 -1 -68 -14 -22 -8 -31 23 -31 33 0 39 16 39 105 0 67
4 85 23 112 13 18 22 38 21 45 -2 14 10 67 20 83 6 11 7 18 9 78 2 46 20 49
29 5 l7 -33 8 43 c4 24 13 56 21 71 9 18 11 34 5 44 -5 9 -4 18 2 22 7 4 6 13
-1 27 -6 11 -7 23 -3 27 5 3 17 20 27 38 14 26 17 57 17 176 0 80 -4 148 -8
151 -5 3 -19 -8 -31 -25 -13 -17 -25 -28 -28 -26 -4 5 16 47 28 57 13 11 22
68 20 121 -2 35 2 60 9 64 16 10 11 194 -7 220 -7 11 -13 35 -13 53 0 19 -8
72 -17 118 -16 78 -16 84 0 102 14 15 17 39 17 124 l0 106 -50 50 c-27 28 -50
54 -50 58 0 4 -9 17 -19 28 -10 12 -26 41 -34 66 -11 32 -21 46 -38 50 -21 5
-21 7 -6 13 21 8 23 50 2 67 -8 7 -15 17 -15 23 0 20 -53 87 -69 87 -9 0 -41
22 -72 48 -31 27 -78 57 -105 67 -60 22 -99 51 -83 60 6 4 16 2 22 -4 6 -6 17
-11 24 -11 7 0 31 -11 53 -25 22 -14 40 -23 40 -20 0 21 -56 116 -71 120 -11
4 -27 18 -36 32 -13 20 -22 24 -45 19 -19 -4 -42 1 -66 14 -46 25 -50 25 -54
-2 -3 -22 -53 -56 -65 -44 -3 2 4 18 16 34 27 39 26 46 -5 71 -15 12 -24 21
-20 21 19 0 -32 53 -68 70 -22 11 -67 36 -100 55 -32 20 -68 35 -80 34 -46 -4
-97 1 -92 10 3 4 -14 11 -38 14 -25 4 -60 15 -79 26 -19 11 -38 17 -41 14 -11
-12 -109 -3 -120 11 -19 24 -114 27 -176 6z m770 -394 c0 -3 -4 -8 -10 -11 -5
-3 -10 -1 -10 4 0 6 5 11 10 11 6 0 10 -2 10 -4z m16 -63 c-10 -10 -19 5 -10
18 6 11 8 11 12 0 2 -7 1 -15 -2 -18z m184 17 c0 -5 -7 -10 -15 -10 -8 0 -15
5 -15 10 0 6 7 10 15 10 8 0 15 -4 15 -10z m-350 -24 c0 -2 -7 -9 -15 -16 -13
-11 -14 -10 -9 4 5 14 24 23 24 12z m219 -5 c7 -5 10 -14 7 -20 -10 -16 -26
-14 -20 3 3 8 -2 16 -13 19 -12 3 -13 5 -3 6 8 0 21 -3 29 -8z m99 -37 c26 -8
29 -20 5 -27 -10 -2 -26 -8 -35 -12 -11 -4 -18 -3 -18 5 0 6 5 8 11 4 8 -4 9
0 4 15 -7 22 -3 24 33 15z m-68 -14 c0 -5 -2 -10 -4 -10 -3 0 -8 5 -11 10 -3
6 -1 10 4 10 6 0 11 -4 11 -10z m-40 -30 c0 -5 -4 -10 -10 -10 -5 0 -10 5 -10
10 0 6 5 10 10 10 6 0 10 -4 10 -10z m282 -39 c7 -10 23 -21 36 -25 12 -4 22
-12 22 -17 0 -14 -13 -11 -40 8 -14 10 -33 16 -42 15 -20 -4 -21 -1 -12 22 8
21 20 20 36 -3z m-22 -61 c0 -5 -4 -10 -10 -10 -5 0 -10 5 -10 10 0 6 5 10 10
10 6 0 10 -4 10 -10z m-2069 -43 c-1 -12 -15 -9 -19 4 -3 6 1 10 8 8 6 -3 11
-8 11 -12z m211 -15 c-40 -40 -106 -60 -84 -26 10 15 55 39 69 36 6 -1 15 2
18 8 4 6 9 9 12 6 2 -2 -4 -13 -15 -24z m2022 2 c4 -11 2 -12 -14 -1 -11 6
-20 15 -20 19 0 12 28 -3 34 -18z m-2254 -18 c0 -3 -4 -8 -10 -11 -5 -3 -10
-1 -10 4 0 6 5 11 10 11 6 0 10 -2 10 -4z m2290 -16 c0 -5 -4 -10 -10 -10 -5
0 -10 5 -10 10 0 6 5 10 10 10 6 0 10 -4 10 -10z m-2343 -27 c-9 -9 -20 -14
-24 -10 -3 4 2 14 13 21 25 19 33 10 11 -11z m153 -18 c0 -12 -21 -25 -41 -25
-5 0 -2 11 7 25 16 25 34 25 34 0z m-70 -44 c0 -12 -20 -25 -27 -18 -7 7 6 27
18 27 5 0 9 -4 9 -9z m-42 -45 c-10 -7 -18 -16 -18 -19 0 -4 -22 -28 -50 -54
-27 -26 -50 -52 -50 -59 0 -13 -49 -64 -61 -64 -15 0 -10 15 11 38 11 12 20
24 20 28 0 3 11 15 25 26 14 11 25 24 25 31 0 12 68 77 81 77 5 0 9 8 9 17 0
14 2 15 13 4 10 -10 9 -15 -5 -25z m1962 -106 c0 -5 -4 -10 -10 -10 -5 0 -10
5 -10 10 0 6 5 10 10 10 6 0 10 -4 10 -10z m-2050 -60 c0 -5 -5 -10 -11 -10
-5 0 -7 5 -4 10 3 6 8 10 11 10 2 0 4 -4 4 -10z m-110 -70 c0 -5 -5 -10 -11
-10 -5 0 -7 5 -4 10 3 6 8 10 11 10 2 0 4 -4 4 -10z m2344 1 c3 -5 -1 -11 -9
-15 -9 -3 -15 0 -15 9 0 16 16 20 24 6z m-2364 -46 c-7 -8 -17 -15 -22 -15 -6
0 -5 7 2 15 7 8 17 15 22 15 6 0 5 -7 -2 -15z m2406 -42 c-11 -11 -19 6 -11
24 8 17 8 17 12 0 3 -10 2 -21 -1 -24z m24 -232 c0 -5 -7 -11 -14 -14 -10 -4
-13 -1 -9 9 6 15 23 19 23 5z m-2450 -115 c0 -3 -4 -8 -10 -11 -5 -3 -10 -1
-10 4 0 6 5 11 10 11 6 0 10 -2 10 -4z m2554 -178 c-8 -27 -12 -33 -19 -27 -7
8 7 49 17 49 5 0 6 -10 2 -22z m-2649 -28 c3 -5 1 -10 -4 -10 -6 0 -11 5 -11
10 0 6 2 10 4 10 3 0 8 -4 11 -10z m55 -300 c0 -11 -4 -20 -10 -20 -5 0 -10 9
-10 20 0 11 5 20 10 20 6 0 10 -9 10 -20z m2644 -405 c3 3 2 -1 -4 -7 -5 -7
-10 -29 -10 -50 0 -56 -18 -46 -22 13 -3 56 -1 64 17 49 7 -5 15 -8 19 -5z"/>
<path d="M2680 4379 c0 -5 5 -7 10 -4 6 3 10 8 10 11 0 2 -4 4 -10 4 -5 0 -10
-5 -10 -11z"/>
<path d="M3190 4275 c0 -8 5 -15 10 -15 6 0 10 7 10 15 0 8 -4 15 -10 15 -5 0
-10 -7 -10 -15z"/>
<path d="M2684 4115 c11 -8 22 -12 25 -9 6 6 -19 24 -34 24 -5 -1 -1 -7 9 -15z"/>
<path d="M2405 4060 c3 -5 8 -10 11 -10 2 0 4 5 4 10 0 6 -5 10 -11 10 -5 0
-7 -4 -4 -10z"/>
<path d="M3425 3790 c3 -5 10 -10 16 -10 5 0 9 5 9 10 0 6 -7 10 -16 10 -8 0
-12 -4 -9 -10z"/>
<path d="M1430 3210 c0 -5 5 -10 10 -10 6 0 10 5 10 10 0 6 -4 10 -10 10 -5 0
-10 -4 -10 -10z"/>
<path d="M3350 2885 c-26 -28 -63 -35 -54 -10 7 17 -13 20 -36 5 -8 -5 -17 -5
-20 -1 -3 5 -30 5 -60 1 -30 -4 -56 -3 -58 1 -5 12 -32 11 -32 -1 0 -5 -12
-13 -27 -16 -16 -4 -36 -13 -45 -21 -21 -19 -88 -29 -88 -14 0 6 -6 11 -13 11
-23 0 -17 -37 8 -50 14 -7 22 -17 19 -21 -7 -12 -36 1 -62 27 -33 35 -55 32
-47 -6 4 -18 2 -30 -3 -30 -6 0 -13 14 -17 30 -4 17 -10 30 -15 30 -12 0 -20
-28 -14 -45 7 -18 72 -57 78 -46 3 4 37 7 76 6 53 -2 70 1 70 11 0 23 49 29
64 9 11 -15 18 -16 45 -7 24 9 37 8 51 0 22 -14 39 -3 22 14 -15 15 -16 28 -2
28 6 0 10 -7 10 -15 0 -9 9 -15 25 -15 16 0 25 6 25 16 0 8 -4 12 -10 9 -5 -3
-10 -2 -10 3 0 13 59 21 63 9 1 -5 23 -11 47 -12 25 -1 39 0 33 2 -7 3 -13 9
-13 13 0 7 27 7 79 1 3 -1 -4 -7 -14 -15 -19 -14 -14 -53 6 -41 6 4 8 13 5 21
-7 17 10 19 18 2 3 -7 5 -2 4 12 -2 14 1 31 5 38 5 7 3 12 -7 12 -9 0 -16 7
-16 15 0 8 -9 15 -20 15 -11 0 -20 6 -20 14 0 7 -6 19 -13 25 -11 8 -19 5 -37
-14z m-95 -55 c3 -5 -1 -10 -9 -10 -9 0 -16 5 -16 10 0 6 4 10 9 10 6 0 13 -4
16 -10z m75 -30 c0 -5 -4 -10 -10 -10 -5 0 -10 5 -10 10 0 6 5 10 10 10 6 0
10 -4 10 -10z"/>
<path d="M1680 2856 c0 -9 -7 -12 -19 -9 -27 7 -72 -27 -65 -50 5 -15 1 -17
-20 -11 -20 5 -26 2 -26 -10 0 -9 -7 -28 -16 -41 -9 -14 -12 -25 -8 -25 5 0 2
-5 -6 -11 -11 -8 -7 -9 19 -5 18 3 42 6 52 6 12 0 19 7 19 19 0 12 9 20 28 24
34 7 56 -11 24 -19 -12 -4 -22 -10 -22 -14 0 -10 236 -7 246 3 4 4 13 2 21 -4
10 -9 17 -8 28 1 11 9 19 9 28 2 7 -6 53 -13 102 -16 50 -2 97 -7 106 -11 13
-5 15 -1 11 21 -4 23 -2 26 13 20 13 -5 11 1 -8 20 -15 15 -37 28 -50 29 -12
1 -28 3 -35 4 -6 0 -11 6 -10 12 2 6 -17 17 -41 26 -35 12 -45 12 -52 2 -10
-16 -59 -18 -59 -3 0 7 8 15 18 17 11 3 8 5 -9 6 -15 0 -32 8 -39 16 -13 16
-61 17 -72 1 -4 -6 -11 -6 -20 0 -18 14 -57 15 -81 3 -13 -8 -22 -8 -30 0 -15
15 -27 14 -27 -3z"/>
<path d="M3281 2764 c0 -11 3 -14 6 -6 3 7 2 16 -1 19 -3 4 -6 -2 -5 -13z"/>
<path d="M2767 2746 c-7 -17 18 -42 27 -27 7 11 -3 41 -14 41 -4 0 -10 -6 -13
-14z"/>
<path d="M1500 2673 c1 -19 18 -33 33 -27 21 8 22 20 1 28 -21 8 -34 8 -34 -1z"/>
<path d="M2000 2589 c-143 -35 -235 -51 -261 -45 -21 4 -31 1 -35 -9 -4 -8
-18 -15 -31 -15 -25 0 -93 -35 -93 -48 0 -4 13 -22 29 -41 28 -32 32 -34 78
-28 57 7 109 31 123 57 11 21 40 17 40 -6 0 -32 99 -43 100 -11 0 7 5 4 11 -6
7 -12 15 -15 22 -9 7 5 24 12 40 16 23 5 27 11 27 41 0 19 5 35 11 35 11 0 78
-37 89 -49 3 -4 15 -14 27 -24 25 -22 51 -14 32 9 -9 11 -8 19 6 34 10 11 25
20 33 20 31 0 -30 49 -69 55 -21 4 -43 13 -50 21 -13 15 -72 17 -129 3z"/>
<path d="M1370 2580 c0 -5 5 -10 10 -10 6 0 10 5 10 10 0 6 -4 10 -10 10 -5 0
-10 -4 -10 -10z"/>
<path d="M2935 2573 c-84 -24 -120 -45 -123 -73 -2 -14 -8 -29 -13 -34 -5 -6
-9 -16 -9 -23 0 -10 5 -11 19 -3 11 5 38 10 60 10 23 0 41 4 41 10 0 11 104
43 108 33 13 -39 51 -88 66 -86 10 0 32 -5 48 -12 25 -10 35 -10 57 1 14 8 35
11 45 8 16 -5 18 -2 13 15 -3 12 -2 21 1 19 10 -5 62 -28 98 -43 51 -22 149
10 136 44 -4 10 -1 13 11 8 19 -7 29 5 21 26 -9 25 -113 72 -151 68 -11 -1
-24 3 -28 8 -3 6 -23 11 -43 11 l-37 -1 28 -15 c15 -8 27 -16 27 -17 0 -5 -47
0 -57 6 -6 4 -52 7 -102 8 -50 0 -91 5 -91 10 0 5 23 9 52 9 74 0 56 7 -35 14
-44 3 -82 8 -85 9 -4 2 -29 -2 -57 -10z"/>
<path d="M3215 2570 c-3 -5 1 -10 10 -10 9 0 13 5 10 10 -3 6 -8 10 -10 10 -2
0 -7 -4 -10 -10z"/>
<path d="M4105 2567 c-4 -10 -5 -21 -1 -24 10 -10 18 4 13 24 -4 17 -4 17 -12
0z"/>
<path d="M1358 2553 c12 -2 22 -11 22 -19 0 -8 5 -12 10 -9 17 10 -9 35 -34
34 -20 -2 -20 -2 2 -6z"/>
<path d="M4090 2506 c0 -9 5 -16 10 -16 6 0 10 4 10 9 0 6 -4 13 -10 16 -5 3
-10 -1 -10 -9z"/>
<path d="M2115 2470 c-3 -5 -1 -10 4 -10 6 0 11 5 11 10 0 6 -2 10 -4 10 -3 0
-8 -4 -11 -10z"/>
<path d="M3924 1892 c3 -6 -1 -17 -10 -26 -9 -10 -13 -24 -9 -36 7 -21 25 -28
25 -8 0 6 3 9 6 6 3 -4 1 -16 -6 -27 -9 -18 -8 -21 7 -21 19 0 23 15 27 85 1
24 -3 31 -23 33 -14 2 -21 0 -17 -6z"/>
<path d="M2066 1745 c-13 -10 -17 -18 -10 -25 12 -12 103 -30 153 -30 20 0 67
-14 106 -30 38 -17 86 -30 106 -30 28 0 39 -5 49 -25 7 -13 21 -27 32 -31 25
-8 23 -19 -6 -22 -13 -1 -29 5 -36 13 -7 8 -17 12 -22 9 -6 -4 -5 -10 3 -16
11 -8 11 -11 1 -15 -21 -8 5 -32 28 -26 19 5 26 -12 21 -54 -1 -6 3 -14 9 -18
5 -3 10 -1 10 4 0 6 5 11 10 11 6 0 10 -8 10 -18 0 -14 8 -19 30 -19 32 0 38
8 17 25 -20 17 -21 82 -2 82 8 0 15 5 15 10 0 6 5 10 10 10 6 0 10 -11 10 -24
0 -14 4 -28 10 -31 5 -3 7 -19 4 -34 -4 -16 -1 -32 5 -35 6 -4 11 -16 11 -27
0 -30 22 -23 56 18 l31 37 15 -31 c12 -23 13 -34 4 -43 -8 -8 -6 -15 9 -26 18
-13 20 -13 23 0 5 23 32 19 32 -4 0 -23 10 -26 29 -7 10 10 14 8 22 -6 6 -9
14 -15 19 -12 4 3 11 -2 14 -10 10 -27 -33 -38 -95 -25 -30 7 -66 13 -81 13
-16 1 -28 6 -28 11 0 4 -8 5 -17 2 -9 -4 -19 -2 -23 4 -4 7 -18 8 -34 4 -20
-5 -25 -11 -21 -24 6 -20 10 -19 -108 -23 -38 -1 -70 1 -73 4 -2 4 -27 5 -55
2 -37 -4 -54 -1 -62 10 -15 19 -57 32 -57 18 0 -5 7 -14 15 -18 9 -5 -25 -9
-83 -8 -53 0 -103 4 -111 9 -8 5 -50 11 -95 13 -45 2 -87 6 -93 8 -19 6 -4 35
18 35 10 0 19 6 20 13 6 70 6 77 -6 77 -8 0 -17 9 -20 20 -3 11 -10 20 -15 20
-5 0 -15 2 -22 5 -9 4 -20 -5 -28 -20 -7 -14 -17 -25 -22 -25 -5 0 -7 4 -3 9
3 5 1 12 -5 16 -5 3 -14 -5 -19 -18 -5 -13 -21 -31 -36 -41 -23 -15 -26 -23
-22 -52 4 -25 2 -34 -9 -34 -8 0 -14 -5 -14 -11 0 -6 6 -9 13 -6 8 3 12 -8 12
-38 0 -50 8 -63 29 -46 16 13 82 6 92 -10 8 -14 24 0 24 22 0 23 -2 23 45 4
31 -14 54 -14 145 -6 59 6 111 11 116 12 5 1 11 1 14 0 12 -3 242 -12 323 -12
49 0 94 5 101 10 14 12 75 -4 87 -21 6 -10 65 -20 114 -19 22 0 26 -2 15 -9
-13 -8 -13 -11 -1 -22 8 -7 11 -8 8 -2 -4 6 3 20 14 30 29 26 88 21 117 -12
12 -14 22 -21 22 -16 0 5 9 12 21 15 15 4 23 0 26 -14 3 -10 9 -19 14 -19 5 0
9 -5 9 -11 0 -15 31 -38 50 -38 8 0 5 4 -7 9 -25 10 -30 28 -10 36 14 5 18 84
4 84 -4 0 -5 5 -2 10 4 6 1 18 -6 26 -7 8 -13 34 -13 58 -1 30 -5 42 -13 39
-14 -5 -30 24 -19 34 3 3 12 0 21 -7 23 -19 18 4 -6 26 -20 18 -21 18 -31 0
-9 -17 -11 -16 -34 5 -21 19 -24 20 -24 5 0 -9 -4 -15 -8 -12 -5 3 -27 6 -50
7 -23 2 -42 7 -42 11 0 4 -12 8 -26 8 -22 0 -24 -3 -18 -22 3 -13 11 -24 15
-26 5 -2 9 -8 9 -13 0 -11 -32 1 -42 15 -5 7 -8 6 -8 -4 0 -11 -4 -10 -12 4
-8 15 -7 22 4 30 14 10 14 14 -2 34 -12 15 -20 18 -23 10 -7 -21 -40 4 -60 45
-14 27 -25 37 -42 37 -13 0 -27 5 -31 11 -4 7 -21 9 -41 6 -26 -5 -36 -2 -46
14 -6 10 -22 19 -35 19 -14 0 -22 5 -20 12 7 19 107 48 227 63 103 13 161 32
161 53 0 4 -34 7 -75 8 -42 0 -85 6 -99 14 -18 9 -29 10 -38 3 -7 -6 -29 -14
-48 -17 -19 -4 -48 -13 -65 -21 -86 -39 -112 -48 -142 -51 -18 -1 -35 2 -39 7
-3 5 -13 9 -22 9 -10 0 -44 14 -75 30 -32 17 -67 30 -77 30 -10 0 -22 5 -25
10 -9 15 -77 11 -99 -5z m472 -243 c2 -7 -3 -12 -10 -12 -8 0 -15 7 -15 15 0
18 19 15 25 -3z m122 -20 c0 -7 -4 -10 -10 -7 -5 3 -10 16 -10 28 0 18 2 19
10 7 5 -8 10 -21 10 -28z m-13 -44 c-3 -8 -6 -5 -6 6 -1 11 2 17 5 13 3 -3 4
-12 1 -19z m-771 -25 c-10 -10 -19 5 -10 18 6 11 8 11 12 0 2 -7 1 -15 -2 -18z
m-86 -123 c0 -5 -5 -10 -11 -10 -5 0 -7 5 -4 10 3 6 8 10 11 10 2 0 4 -4 4
-10z m1187 -76 c-3 -3 -12 -4 -19 -1 -8 3 -5 6 6 6 11 1 17 -2 13 -5z m33 -14
c0 -5 -4 -10 -10 -10 -5 0 -10 5 -10 10 0 6 5 10 10 10 6 0 10 -4 10 -10z"/>
<path d="M3917 1701 c-21 -41 -21 -41 -1 -41 8 0 12 5 9 10 -4 6 -1 17 5 25 7
8 10 20 8 27 -3 7 -12 -3 -21 -21z"/>
<path d="M2570 1610 c0 -11 5 -20 10 -20 6 0 10 9 10 20 0 11 -4 20 -10 20 -5
0 -10 -9 -10 -20z"/>
<path d="M2208 1580 c-7 -11 -21 -20 -30 -20 -10 0 -18 -4 -18 -9 0 -5 -7 -11
-14 -14 -10 -4 -13 -1 -10 7 8 21 -12 28 -38 14 -13 -7 -25 -16 -28 -19 -3 -3
-18 -5 -35 -5 -17 1 -29 -4 -28 -10 1 -7 -13 -15 -32 -18 -21 -4 -35 -13 -35
-21 0 -19 11 -19 36 0 29 22 40 18 18 -6 -19 -22 -19 -22 7 -17 23 4 25 2 21
-24 -2 -15 -2 -28 2 -28 9 0 36 57 29 64 -4 3 1 6 11 6 9 0 22 11 28 25 15 33
30 32 18 -1 -6 -14 -7 -31 -3 -37 4 -7 8 -16 8 -22 0 -24 21 -14 29 14 5 17
15 31 22 31 8 0 14 10 14 21 0 20 4 21 51 16 44 -5 49 -4 39 8 -7 8 -21 15
-31 15 -23 0 -25 18 -4 26 19 8 19 24 0 24 -8 0 -20 -9 -27 -20z"/>
<path d="M2294 1525 c3 -8 1 -15 -5 -15 -6 0 -7 -4 -4 -10 8 -13 -8 -13 -22 1
-15 15 -51 2 -58 -22 -4 -10 -11 -19 -16 -19 -5 0 -9 -7 -9 -15 0 -18 17 -20
23 -2 3 9 8 9 16 1 19 -17 93 23 86 46 -3 10 -1 21 5 25 12 7 4 25 -12 25 -5
0 -8 -7 -4 -15z m-54 -45 c0 -5 -4 -10 -10 -10 -5 0 -10 5 -10 10 0 6 5 10 10
10 6 0 10 -4 10 -10z"/>
<path d="M2400 1481 c11 -40 20 -52 31 -46 5 4 3 18 -6 35 -21 41 -36 47 -25
11z"/>
<path d="M3890 1495 c0 -8 -4 -15 -10 -15 -5 0 -10 -9 -10 -19 0 -11 -5 -21
-11 -23 -6 -2 -10 -13 -8 -23 3 -16 10 -10 32 27 29 49 33 68 17 68 -5 0 -10
-7 -10 -15z"/>
<path d="M2790 1475 c12 -13 27 -22 31 -19 10 6 -27 44 -43 44 -6 0 -1 -11 12
-25z"/>
<path d="M2590 1470 c0 -5 5 -10 10 -10 6 0 10 5 10 10 0 6 -4 10 -10 10 -5 0
-10 -4 -10 -10z"/>
<path d="M2565 1400 c-3 -5 -1 -10 4 -10 6 0 11 5 11 10 0 6 -2 10 -4 10 -3 0
-8 -4 -11 -10z"/>
<path d="M2690 1370 c0 -19 3 -21 12 -12 9 9 9 15 0 24 -9 9 -12 7 -12 -12z"/>
<path d="M3850 1345 c0 -19 5 -35 10 -35 6 0 10 16 10 35 0 19 -4 35 -10 35
-5 0 -10 -16 -10 -35z"/>
<path d="M3832 1288 c-6 -6 -12 -17 -12 -23 0 -12 -39 -39 -60 -40 -8 0 -17
-13 -20 -30 -9 -40 -33 -86 -59 -109 -26 -23 -29 -2 -4 26 9 10 13 21 10 24
-3 4 -17 -7 -31 -22 -18 -21 -22 -33 -15 -46 17 -31 11 -40 -21 -33 -27 6 -30
4 -30 -18 0 -19 -8 -28 -32 -36 -17 -6 -34 -9 -36 -6 -3 3 1 5 8 5 11 0 11 3
2 12 -9 9 -15 8 -26 -8 -13 -16 -13 -21 0 -35 20 -22 17 -31 -6 -19 -22 12
-60 -2 -60 -22 0 -9 -3 -9 -12 0 -9 9 -7 16 7 32 10 11 15 23 11 27 -8 8 -41
-10 -41 -23 0 -19 -16 -33 -30 -27 -8 3 -15 0 -15 -7 0 -14 -40 -49 -57 -50
-7 0 -13 -6 -13 -12 0 -7 -11 0 -24 15 -13 15 -34 29 -45 30 -12 1 -21 5 -21
9 0 4 -4 8 -10 8 -17 0 -11 -18 9 -25 19 -6 38 -52 26 -64 -4 -3 -13 2 -20 13
-8 10 -18 15 -24 12 -5 -4 -16 2 -23 13 -9 13 -23 19 -41 17 -31 -4 -49 -16
-24 -16 9 0 19 -11 23 -25 8 -32 -1 -42 -20 -26 -20 17 -38 4 -31 -20 4 -13 2
-19 -9 -19 -8 0 -17 8 -19 18 -3 9 -4 -3 -4 -28 2 -31 -2 -44 -10 -43 -7 2
-13 -5 -13 -15 -1 -20 -44 -72 -61 -72 -6 0 -8 -7 -5 -17 10 -24 -15 -35 -36
-16 -17 15 -18 15 -18 -5 0 -11 5 -24 10 -27 6 -3 10 -11 10 -18 0 -8 -3 -8
-12 1 -16 16 -48 15 -48 -2 0 -7 -7 -20 -16 -27 -14 -12 -19 -10 -38 14 -27
33 -36 34 -36 2 0 -18 -4 -23 -15 -19 -9 4 -14 13 -13 22 2 9 -5 18 -14 20
-10 2 -18 -1 -18 -7 0 -6 4 -11 10 -11 5 0 7 -7 3 -16 -5 -14 -8 -12 -19 7
-11 21 -13 22 -19 7 -4 -9 -13 -14 -21 -11 -8 3 -14 -1 -14 -10 0 -10 -7 -13
-20 -10 -22 6 -27 19 -9 25 7 2 6 8 -4 16 -13 11 -17 8 -28 -18 -8 -17 -21
-30 -31 -30 -21 0 -24 -16 -5 -23 6 -3 -1 -4 -18 -3 -16 1 -34 -1 -40 -4 -5
-4 -22 -10 -37 -12 -26 -5 -28 -3 -28 27 0 28 -4 33 -25 33 -21 0 -23 -3 -14
-20 14 -25 3 -37 -14 -15 -6 9 -30 26 -51 37 -22 11 -34 14 -28 8 15 -15 16
-68 2 -68 -5 0 -10 5 -10 11 0 6 -7 9 -15 5 -8 -3 -22 2 -31 11 -15 15 -17 15
-34 -7 -11 -15 -20 -19 -24 -11 -4 6 -5 15 -2 20 3 5 -8 14 -24 20 -27 9 -30
8 -30 -10 0 -19 -1 -19 -16 -4 -12 11 -13 19 -5 29 13 15 5 26 -20 26 -13 0
-16 -6 -12 -23 4 -21 4 -22 -11 -3 -9 11 -16 26 -16 33 0 20 -20 16 -20 -4 -1
-16 -3 -16 -18 2 -22 27 -51 38 -67 25 -10 -8 -13 -3 -12 22 1 34 -38 92 -55
82 -4 -3 -11 3 -14 13 -13 41 -28 62 -47 67 -16 4 -18 8 -8 20 10 11 7 19 -14
40 -14 14 -30 26 -35 26 -5 0 -10 12 -12 28 -2 21 -9 28 -30 30 -24 3 -42 22
-20 22 4 0 8 9 9 20 1 11 -4 20 -12 20 -9 0 -12 -6 -9 -15 4 -8 1 -15 -5 -15
-6 0 -11 5 -11 10 0 6 -7 10 -15 10 -8 0 -15 -4 -15 -10 0 -19 -19 -10 -59 30
-22 22 -46 40 -53 40 -23 1 -51 29 -54 55 -1 14 -16 49 -33 79 -17 29 -31 63
-31 75 0 19 -25 40 -34 30 -7 -8 20 -119 32 -131 6 -6 12 -21 12 -33 1 -11 10
-36 20 -55 41 -75 60 -116 60 -131 0 -9 8 -19 18 -21 10 -3 22 -23 30 -54 8
-27 23 -68 34 -91 19 -39 20 -49 6 -127 -2 -14 5 -21 26 -27 16 -4 43 -23 60
-41 18 -18 44 -39 58 -47 15 -8 34 -29 43 -47 8 -18 30 -48 49 -67 18 -19 35
-39 37 -43 2 -5 26 -20 53 -34 26 -14 50 -30 53 -37 3 -6 18 -15 34 -18 16 -4
47 -22 70 -41 24 -20 52 -34 68 -34 15 0 31 -8 39 -20 7 -11 20 -20 30 -20 19
0 42 -18 42 -33 0 -5 -7 -6 -16 -3 -15 6 -15 4 -3 -10 11 -14 10 -17 -4 -26
-10 -5 -15 -13 -12 -19 4 -5 13 -3 21 6 32 32 61 15 55 -32 -2 -17 16 -17 22
0 3 7 6 5 6 -5 1 -23 17 -23 25 -2 6 15 8 15 24 1 15 -14 56 -15 327 -12 370
5 381 6 424 28 19 9 40 17 48 17 7 0 13 5 13 10 0 6 6 10 14 10 8 0 38 25 67
55 29 30 58 55 64 55 6 0 25 16 42 35 17 19 35 35 40 35 5 0 19 10 31 23 35
37 56 53 75 60 11 4 21 16 24 27 4 15 14 20 40 20 27 0 36 5 40 21 4 14 12 19
24 16 13 -4 28 9 54 47 19 28 35 55 35 60 0 5 8 18 17 28 15 17 15 21 3 29
-11 8 -12 12 -2 16 6 2 12 15 12 28 0 13 4 27 10 30 5 3 10 16 9 28 0 41 10
107 20 125 9 18 -5 81 -22 98 -13 14 -7 34 11 35 10 0 12 3 5 6 -23 9 -14 33
12 33 14 0 25 5 25 10 0 6 -4 10 -9 10 -5 0 -8 18 -7 40 0 22 4 40 8 40 5 0 8
-7 8 -15 0 -8 5 -15 10 -15 9 0 11 6 14 43 1 6 7 16 14 20 6 4 12 19 12 32 0
13 6 25 13 28 7 2 0 15 -20 34 -36 33 -39 43 -22 60 6 6 10 16 8 23 -3 8 -8 7
-17 -2z m-2242 -379 c0 -6 -4 -7 -10 -4 -5 3 -10 11 -10 16 0 6 5 7 10 4 6 -3
10 -11 10 -16z m1910 2 c0 -12 -20 -25 -27 -18 -7 7 6 27 18 27 5 0 9 -4 9 -9z
m-1803 -37 c8 -22 -15 -43 -27 -24 -5 8 -10 21 -10 28 0 17 30 15 37 -4z
m2053 -1 c0 -10 -32 -43 -42 -43 -5 0 -1 11 8 25 15 23 34 33 34 18z m-576
-64 c-3 -6 -7 -9 -8 -7 -1 2 -8 12 -16 22 -14 18 -14 19 8 7 12 -7 20 -17 16
-22z m105 2 c10 -7 7 -9 -12 -8 -14 1 -23 5 -20 10 6 9 15 9 32 -2z m436 -41
c3 -5 1 -10 -4 -10 -6 0 -11 5 -11 10 0 6 2 10 4 10 3 0 8 -4 11 -10z m-285
-144 c0 -3 -4 -8 -10 -11 -5 -3 -10 -1 -10 4 0 6 5 11 10 11 6 0 10 -2 10 -4z
m-1133 -532 c2 -5 -6 -10 -17 -10 -20 0 -25 7 -13 20 9 8 26 3 30 -10z m63
-13 c0 -12 -20 -25 -27 -18 -7 7 6 27 18 27 5 0 9 -4 9 -9z"/>
<path d="M3775 1270 c-8 -13 4 -32 16 -25 12 8 12 35 0 35 -6 0 -13 -4 -16
-10z"/>
<path d="M1710 1110 c0 -5 5 -10 10 -10 6 0 10 5 10 10 0 6 -4 10 -10 10 -5 0
-10 -4 -10 -10z"/>
<path d="M3101 1073 c-18 -20 -6 -29 14 -10 8 9 12 18 8 20 -5 3 -14 -2 -22
-10z"/>
<path d="M1685 1070 c-3 -5 -2 -10 4 -10 5 0 13 5 16 10 3 6 2 10 -4 10 -5 0
-13 -4 -16 -10z"/>
<path d="M2600 1067 c-14 -6 -107 -11 -217 -11 -105 -1 -189 -4 -186 -8 2 -5
-1 -8 -6 -8 -6 0 -11 5 -11 10 0 17 -32 11 -46 -7 -10 -15 -10 -21 3 -35 9
-10 22 -18 30 -18 7 0 13 -7 13 -15 0 -8 5 -15 11 -15 7 0 9 -10 7 -25 -3 -14
-2 -25 2 -25 4 0 17 -9 30 -20 29 -25 45 -25 78 0 16 13 29 17 35 11 5 -5 16
-7 23 -4 8 3 14 -1 14 -11 0 -9 5 -16 12 -16 6 0 8 3 5 7 -8 7 11 33 25 33 6
0 8 -7 4 -15 -5 -13 -1 -13 30 0 20 8 40 13 44 10 14 -9 40 30 30 45 -5 8 -10
21 -10 29 0 11 5 9 21 -5 20 -18 22 -18 33 -2 7 10 28 18 47 19 48 3 53 8 32
31 -18 20 -18 21 14 16 20 -3 34 0 37 8 3 8 -1 11 -10 7 -7 -3 -14 0 -14 7 0
6 -8 10 -17 8 -10 -1 -22 0 -28 4 -5 3 -21 1 -35 -5z m-350 -159 c0 -16 -3
-19 -11 -11 -6 6 -8 16 -5 22 11 17 16 13 16 -11z"/>
<path d="M3032 1048 c2 -6 10 -14 16 -16 7 -2 10 2 6 12 -7 18 -28 22 -22 4z"/>
<path d="M1710 1039 c0 -5 5 -7 10 -4 6 3 10 8 10 11 0 2 -4 4 -10 4 -5 0 -10
-5 -10 -11z"/>
<path d="M3160 1040 c0 -5 5 -10 10 -10 6 0 10 5 10 10 0 6 -4 10 -10 10 -5 0
-10 -4 -10 -10z"/>
<path d="M1617 1017 c-3 -9 -2 -19 4 -23 15 -9 18 -2 9 20 -6 17 -7 18 -13 3z"/>
<path d="M3550 1020 c0 -5 5 -10 11 -10 5 0 7 5 4 10 -3 6 -8 10 -11 10 -2 0
-4 -4 -4 -10z"/>
<path d="M1687 1013 c-6 -6 21 -32 35 -33 3 0 4 9 1 20 -5 20 -23 26 -36 13z"/>
<path d="M1655 990 c-3 -5 -1 -10 4 -10 6 0 11 5 11 10 0 6 -2 10 -4 10 -3 0
-8 -4 -11 -10z"/>
<path d="M3140 945 c-16 -19 -1 -19 24 0 16 12 17 15 4 15 -8 0 -21 -7 -28
-15z"/>
<path d="M3310 930 c0 -13 11 -13 30 0 12 8 11 10 -7 10 -13 0 -23 -4 -23 -10z"/>
<path d="M1995 600 c3 -5 8 -10 11 -10 2 0 4 5 4 10 0 6 -5 10 -11 10 -5 0 -7
-4 -4 -10z"/>
<path d="M3950 469 c0 -32 15 -37 45 -16 17 13 16 15 -13 30 l-32 15 0 -29z"/>
<path d="M1575 438 c3 -18 7 -54 9 -81 3 -40 1 -49 -17 -59 l-22 -12 24 -6
c33 -8 39 -30 9 -30 -27 -1 -50 -17 -66 -47 -16 -30 -15 -53 3 -53 9 0 14 8
12 23 -3 31 25 29 34 -3 4 -14 7 -42 8 -62 1 -39 18 -59 31 -38 4 7 13 9 19 6
18 -12 12 -25 -14 -32 -35 -9 -31 -30 6 -38 45 -9 47 -8 42 17 -3 14 3 29 16
41 18 17 21 17 21 3 0 -9 9 -21 20 -27 17 -9 20 -8 20 9 0 11 -5 21 -11 23 -8
3 -12 48 -11 143 0 78 -4 153 -11 170 -10 29 -45 70 -58 70 -4 0 -11 3 -15 8
-4 4 -18 7 -31 7 -21 0 -23 -3 -18 -32z m20 -229 c4 -6 5 -12 3 -14 -7 -7 -48
7 -48 16 0 13 37 11 45 -2z m6 -42 c-1 -12 -15 -9 -19 4 -3 6 1 10 8 8 6 -3
11 -8 11 -12z"/>
<path d="M4020 374 c0 -3 5 -14 11 -25 8 -15 7 -24 -2 -35 -9 -11 -9 -21 -1
-40 11 -24 13 -24 37 -8 28 18 30 49 7 92 -11 19 -52 32 -52 16z"/>
<path d="M3936 343 c-12 -12 -6 -33 9 -33 8 0 15 6 15 14 0 17 -14 28 -24 19z"/>
<path d="M1513 303 c-15 -5 -18 -33 -4 -33 8 0 25 30 19 35 -2 1 -9 0 -15 -2z"/>
<path d="M3905 240 c-3 -5 -1 -10 4 -10 6 0 11 5 11 10 0 6 -2 10 -4 10 -3 0
-8 -4 -11 -10z"/>
<path d="M1461 194 c0 -11 3 -14 6 -6 3 7 2 16 -1 19 -3 4 -6 -2 -5 -13z"/>
<path d="M4015 154 c-10 -28 -27 -50 -41 -56 -27 -12 -29 -19 -13 -35 13 -13
4 -33 -17 -33 -8 0 -14 -7 -14 -15 0 -11 12 -15 47 -15 45 0 46 0 28 20 -17
19 -17 20 9 41 14 11 26 28 26 38 0 9 5 22 10 27 11 11 2 74 -10 74 -4 0 -15
-21 -25 -46z"/>
<path d="M1085 139 c-16 -5 -48 -25 -70 -45 -22 -19 -60 -48 -85 -62 l-45 -27
104 -3 c57 -1 106 0 109 3 3 3 0 11 -6 17 -21 21 -13 56 19 93 32 36 27 40
-26 24z"/>
<path d="M2150 130 c0 -5 5 -10 11 -10 5 0 7 5 4 10 -3 6 -8 10 -11 10 -2 0
-4 -4 -4 -10z"/>
<path d="M3865 110 c3 -5 8 -10 11 -10 2 0 4 5 4 10 0 6 -5 10 -11 10 -5 0 -7
-4 -4 -10z"/>
<path d="M1526 82 c-3 -6 -1 -14 5 -17 15 -10 25 3 12 16 -7 7 -13 7 -17 1z"/>
<path d="M1695 10 c-3 -5 1 -10 9 -10 9 0 16 5 16 10 0 6 -4 10 -9 10 -6 0
-13 -4 -16 -10z"/>
</g>
</svg>
